<?xml version="1.0" encoding="UTF-8" standalone="no"?>
<svg xmlns="http://www.w3.org/2000/svg" xmlns:xlink="http://www.w3.org/1999/xlink"  version="1.2" baseProfile="tiny">
<title>Qt SVG Document</title>
<desc>Generated with Qt</desc>
<defs>
</defs>
<g fill="none" stroke="black" stroke-width="1" fill-rule="evenodd" stroke-linecap="square" stroke-linejoin="bevel" >

<polyline fill="none" vector-effect="none" points="0,-150 2.62659,-150.477 5.26982,-150.908 7.9289,-151.292 10.603,-151.63 13.2913,-151.92 15.9929,-152.162 18.7069,-152.356 21.4327,-152.501 24.1691,-152.598 26.9155,-152.645 29.6708,-152.643 32.4342,-152.591 35.2048,-152.489 37.9817,-152.336 40.764,-152.133 43.5507,-151.879 46.3409,-151.574 49.1337,-151.218 51.9281,-150.81 54.7232,-150.351 57.5181,-149.84 60.3117,-149.277 63.1031,-148.662 65.8913,-147.994 68.6755,-147.275 71.4545,-146.503 74.2274,-145.68 76.9933,-144.803 79.7512,-143.875 82.5,-142.894 85.2388,-141.861 87.9666,-140.776 90.6824,-139.639 93.3852,-138.449 96.0741,-137.208 98.7479,-135.915 101.406,-134.57 104.047,-133.174 106.67,-131.726 109.274,-130.228 111.858,-128.678 114.421,-127.078 116.963,-125.427 119.481,-123.726 121.976,-121.976 124.446,-120.176 126.89,-118.327 129.307,-116.429 131.697,-114.482 134.058,-112.488 136.389,-110.446 138.69,-108.356 140.959,-106.22 143.196,-104.038 145.399,-101.81 147.569,-99.5363 149.703,-97.2181 151.801,-94.8556 153.862,-92.4493 155.885,-90 157.869,-87.5081 159.814,-84.9744 161.718,-82.3993 163.581,-79.7836 165.401,-77.1278 167.179,-74.4328 168.913,-71.6992 170.602,-68.9276 172.246,-66.1189 173.843,-63.2737 175.394,-60.3929 176.897,-57.4772 178.351,-54.5273 179.756,-51.5442 181.111,-48.5286 182.416,-45.4813 183.669,-42.4033 184.87,-39.2953 186.018,-36.1583 187.113,-32.9932 188.155,-29.8008 189.141,-26.5821 190.073,-23.338 190.948,-20.0695 191.767,-16.7775 192.53,-13.463 193.235,-10.127 193.882,-6.77051 194.47,-3.3945 195,-5.225e-06 194.97,3.40321 194.881,6.8054 194.733,10.2055 194.525,13.6025 194.258,16.9954 193.932,20.383 193.547,23.7645 193.102,27.1387 192.599,30.5047 192.038,33.8614 191.417,37.2077 190.739,40.5428 190.002,43.8654 189.208,47.1748 188.356,50.4697 187.446,53.7493 186.479,57.0125 185.456,60.2583 184.376,63.4858 183.24,66.6939 182.048,69.8817 180.801,73.0483 179.498,76.1926 178.141,79.3136 176.73,82.4106 175.265,85.4824 173.746,88.5281 172.175,91.547 170.551,94.5379 168.875,97.5 167.148,100.432 165.369,103.334 163.541,106.205 161.662,109.043 159.735,111.847 157.758,114.618 155.734,117.354 153.662,120.054 151.543,122.717 149.379,125.344 147.168,127.932 144.913,130.48 142.614,132.99 140.271,135.458 137.886,137.886 135.458,140.271 132.99,142.614 130.48,144.913 127.932,147.168 125.344,149.379 122.717,151.543 120.054,153.662 117.354,155.734 114.618,157.758 111.847,159.735 109.043,161.662 106.205,163.541 103.334,165.369 100.432,167.148 97.5,168.875 94.5379,170.551 91.547,172.175 88.5282,173.746 85.4824,175.265 82.4106,176.73 79.3137,178.141 76.1926,179.498 73.0483,180.801 69.8818,182.048 66.6939,183.24 63.4858,184.376 60.2583,185.456 57.0125,186.479 53.7493,187.446 50.4697,188.356 47.1748,189.208 43.8655,190.002 40.5428,190.739 37.2078,191.417 33.8614,192.038 30.5047,192.599 27.1388,193.102 23.7645,193.547 20.3831,193.932 16.9954,194.258 13.6025,194.525 10.2055,194.733 6.80541,194.881 3.40323,194.97 1.045e-05,195 -3.39012,194.22 -6.75304,193.382 -10.0877,192.486 -13.3932,191.532 -16.6685,190.522 -19.9127,189.456 -23.1247,188.336 -26.3037,187.161 -29.4488,185.932 -32.559,184.651 -35.6336,183.319 -38.6716,181.935 -41.6722,180.502 -44.6346,179.02 -47.558,177.489 -50.4416,175.911 -53.2847,174.287 -56.0866,172.617 -58.8464,170.902 -61.5636,169.145 -64.2374,167.344 -66.8673,165.502 -69.4524,163.62 -71.9924,161.698 -74.4865,159.737 -76.9341,157.738 -79.3348,155.703 -81.688,153.633 -83.9933,151.528 -86.25,149.389 -88.4578,147.218 -90.6162,145.016 -92.7248,142.784 -94.7832,140.522 -96.791,138.232 -98.7479,135.915 -100.654,133.572 -102.508,131.204 -104.31,128.812 -106.06,126.397 -107.758,123.961 -109.403,121.504 -110.995,119.028 -112.535,116.533 -114.021,114.021 -115.454,111.493 -116.834,108.949 -118.16,106.392 -119.433,103.821 -120.652,101.239 -121.818,98.646 -122.93,96.0432 -123.988,93.4318 -124.993,90.8128 -125.945,88.1874 -126.843,85.5565 -127.688,82.9213 -128.479,80.2828 -129.218,77.642 -129.904,75 -131.193,72.7215 -132.442,70.4207 -133.651,68.0986 -134.819,65.7557 -135.946,63.3927 -137.032,61.0105 -138.076,58.6097 -139.078,56.191 -140.037,53.7552 -140.954,51.303 -141.828,48.8352 -142.658,46.3526 -143.446,43.8558 -144.189,41.3456 -144.889,38.8229 -145.544,36.2883 -146.156,33.7427 -146.722,31.1868 -147.244,28.6214 -147.721,26.0472 -148.153,23.4652 -148.54,20.876 -148.882,18.2804 -149.178,15.6793 -149.429,13.0734 -149.635,10.4635 -149.794,7.85041 -149.909,5.23494 -149.977,2.61787 -150,1.20577e-05 -149.977,-2.61785 -149.909,-5.23491 -149.794,-7.85038 -149.635,-10.4635 -149.429,-13.0733 -149.178,-15.6793 -148.882,-18.2804 -148.54,-20.876 -148.153,-23.4652 -147.721,-26.0472 -147.244,-28.6213 -146.722,-31.1867 -146.156,-33.7426 -145.544,-36.2883 -144.889,-38.8228 -144.189,-41.3456 -143.446,-43.8557 -142.658,-46.3525 -141.828,-48.8352 -140.954,-51.303 -140.037,-53.7552 -139.078,-56.191 -138.076,-58.6097 -137.032,-61.0105 -135.946,-63.3927 -134.819,-65.7557 -133.651,-68.0986 -132.442,-70.4207 -131.193,-72.7214 -129.904,-75 -128.575,-77.2557 -127.207,-79.4879 -125.801,-81.6958 -124.356,-83.8789 -122.873,-86.0365 -121.353,-88.1678 -119.795,-90.2722 -118.202,-92.3492 -116.572,-94.398 -114.907,-96.4181 -113.206,-98.4088 -111.472,-100.37 -109.703,-102.3 -107.901,-104.199 -106.066,-106.066 -104.199,-107.901 -102.3,-109.703 -100.37,-111.472 -98.4089,-113.206 -96.4182,-114.907 -94.3981,-116.572 -92.3492,-118.202 -90.2723,-119.795 -88.1678,-121.353 -86.0365,-122.873 -83.879,-124.356 -81.6959,-125.801 -79.4879,-127.207 -77.2557,-128.575 -75,-129.904 -72.7215,-131.193 -70.4207,-132.442 -68.0986,-133.651 -65.7557,-134.819 -63.3928,-135.946 -61.0105,-137.032 -58.6097,-138.076 -56.191,-139.078 -53.7552,-140.037 -51.303,-140.954 -48.8352,-141.828 -46.3526,-142.658 -43.8558,-143.446 -41.3456,-144.189 -38.8229,-144.889 -36.2883,-145.544 -33.7427,-146.156 -31.1868,-146.722 -28.6214,-147.244 -26.0472,-147.721 -23.4652,-148.153 -20.876,-148.54 -18.2804,-148.882 -15.6793,-149.178 -13.0734,-149.429 -10.4635,-149.635 -7.85041,-149.794 -5.23494,-149.909 -2.61788,-149.977 " />
<polyline fill="none" vector-effect="none" points="5.62786,-120.533 7.72121,-120.913 9.82967,-121.257 11.9526,-121.563 14.0893,-121.833 16.2392,-122.065 18.4016,-122.259 20.5758,-122.414 22.7611,-122.531 24.9569,-122.608 27.1624,-122.646 29.3769,-122.644 31.5996,-122.603 33.83,-122.52 36.0672,-122.398 38.3105,-122.234 40.5591,-122.029 42.8123,-121.783 45.0693,-121.495 47.3294,-121.165 49.5918,-120.793 51.8556,-120.379 54.1201,-119.922 56.3846,-119.424 58.6481,-118.882 60.91,-118.298 63.1693,-117.67 65.4254,-117 67.6773,-116.287 69.9243,-115.53 72.1655,-114.73 74.4001,-113.888 76.6273,-113.002 78.8462,-112.072 81.056,-111.1 83.2559,-110.084 85.4451,-109.026 87.6226,-107.924 89.7877,-106.779 91.9396,-105.592 94.0773,-104.361 96.2,-103.088 98.307,-101.773 100.397,-100.415 102.47,-99.0156 104.525,-97.574 106.56,-96.0906 108.576,-94.5657 110.57,-92.9996 112.543,-91.3926 114.494,-89.7448 116.421,-88.0567 118.324,-86.3285 120.202,-84.5605 122.055,-82.7532 123.881,-80.9068 125.679,-79.0217 127.45,-77.0984 129.191,-75.1372 130.903,-73.1385 132.584,-71.1029 134.234,-69.0307 135.853,-66.9224 137.438,-64.7786 138.99,-62.5997 140.507,-60.3863 141.989,-58.1388 143.436,-55.8579 144.846,-53.544 146.219,-51.1979 147.555,-48.82 148.851,-46.4109 150.109,-43.9714 151.326,-41.5021 152.503,-39.0035 153.638,-36.4764 154.732,-33.9214 155.783,-31.3393 156.792,-28.7307 157.756,-26.0964 158.676,-23.4371 159.551,-20.7535 160.381,-18.0465 161.165,-15.3167 161.902,-12.565 162.592,-9.79212 163.235,-6.99894 163.829,-4.18624 164.375,-1.35486 164.871,1.49435 165,-4.42116e-06 164.975,2.87964 164.899,5.75841 164.774,8.63543 164.598,11.5098 164.372,14.3807 164.096,17.2472 163.77,20.1084 163.394,22.9636 162.969,25.8117 162.493,28.6519 161.968,31.4835 161.394,34.3054 160.771,37.1169 160.099,39.9171 159.378,42.7051 158.608,45.4802 157.79,48.2413 156.924,50.9878 156.011,53.7187 155.049,56.4333 154.041,59.1307 152.985,61.8101 151.883,64.4706 150.735,67.1115 149.541,69.732 148.301,72.3312 147.016,74.9084 145.686,77.4628 144.312,79.9936 142.894,82.5 141.433,84.9813 139.928,87.4367 138.381,89.8654 136.791,92.2668 135.16,94.6401 133.488,96.9846 131.775,99.2995 130.022,101.584 128.229,103.838 126.397,106.06 124.527,108.25 122.619,110.407 120.673,112.53 118.691,114.619 116.673,116.673 114.619,118.691 112.53,120.673 110.407,122.619 108.25,124.527 106.06,126.397 103.838,128.229 101.584,130.022 99.2995,131.775 96.9846,133.488 94.6401,135.16 92.2668,136.791 89.8654,138.381 87.4367,139.928 84.9813,141.433 82.5,142.894 79.9936,144.312 77.4628,145.686 74.9084,147.016 72.3312,148.301 69.732,149.541 67.1116,150.735 64.4706,151.883 61.8101,152.985 59.1307,154.041 56.4333,155.049 53.7188,156.011 50.9878,156.924 48.2413,157.79 45.4802,158.608 42.7051,159.378 39.9171,160.099 37.1169,160.771 34.3054,161.394 31.4835,161.968 28.652,162.493 25.8117,162.969 22.9636,163.394 20.1085,163.77 17.2472,164.096 14.3807,164.372 11.5098,164.598 8.63544,164.774 5.75843,164.899 2.87966,164.975 6.45616,165.703 3.60002,165.046 0.76893,164.34 -2.03627,163.586 -4.81478,162.785 -7.56577,161.937 -10.2885,161.042 -12.9821,160.102 -15.646,159.118 -18.2793,158.089 -20.8813,157.018 -23.4514,155.904 -25.9888,154.748 -28.4929,153.552 -30.9631,152.316 -33.3987,151.041 -35.7991,149.727 -38.1637,148.376 -40.492,146.988 -42.7834,145.565 -45.0374,144.107 -47.2534,142.615 -49.431,141.09 -51.5696,139.532 -53.6689,137.944 -55.7283,136.325 -57.7476,134.676 -59.7262,132.999 -61.6638,131.294 -63.5601,129.562 -65.4146,127.805 -67.2272,126.023 -68.9974,124.217 -70.7251,122.387 -72.4099,120.536 -74.0516,118.664 -75.65,116.771 -77.2049,114.859 -78.7161,112.929 -80.1834,110.982 -81.6068,109.018 -82.9861,107.039 -84.3212,105.045 -85.6121,103.037 -86.8585,101.017 -88.0606,98.9856 -89.2183,96.9432 -90.3316,94.8909 -91.4005,92.8298 -92.425,90.7606 -93.4053,88.6845 -94.3413,86.6022 -95.2332,84.5147 -96.0811,82.4229 -96.8851,80.3277 -97.6453,78.2301 -98.3619,76.1308 -99.0352,74.0308 -99.6653,71.9309 -100.252,69.8321 -103.923,60 -104.954,58.1772 -105.954,56.3366 -106.921,54.4789 -107.855,52.6045 -108.757,50.7142 -109.625,48.8084 -110.461,46.8877 -111.262,44.9528 -112.03,43.0042 -112.763,41.0424 -113.462,39.0682 -114.127,37.082 -114.757,35.0846 -115.351,33.0765 -115.911,31.0583 -116.435,29.0306 -116.924,26.9941 -117.378,24.9494 -117.795,22.8971 -118.177,20.8378 -118.523,18.7721 -118.832,16.7008 -119.106,14.6243 -119.343,12.5434 -119.543,10.4587 -119.708,8.37079 -119.836,6.28032 -119.927,4.18795 -119.982,2.0943 -120,9.64616e-06 -119.982,-2.09428 -119.927,-4.18793 -119.836,-6.2803 -119.708,-8.37077 -119.543,-10.4587 -119.343,-12.5434 -119.106,-14.6243 -118.832,-16.7008 -118.523,-18.7721 -118.177,-20.8378 -117.795,-22.8971 -117.378,-24.9494 -116.924,-26.9941 -116.435,-29.0306 -115.911,-31.0583 -115.351,-33.0765 -114.757,-35.0846 -114.127,-37.082 -113.462,-39.0682 -112.763,-41.0424 -112.03,-43.0041 -111.262,-44.9528 -110.461,-46.8877 -109.625,-48.8084 -108.757,-50.7142 -107.855,-52.6045 -106.921,-54.4789 -105.954,-56.3366 -104.954,-58.1771 -103.923,-60 -102.86,-61.8046 -101.766,-63.5903 -100.64,-65.3567 -99.4845,-67.1031 -98.2982,-68.8292 -97.082,-70.5342 -95.8363,-72.2178 -94.5613,-73.8794 -93.2575,-75.5184 -91.9253,-77.1345 -90.5652,-78.7271 -89.1774,-80.2957 -87.7625,-81.8398 -86.3208,-83.359 -84.8528,-84.8528 -83.359,-86.3208 -81.8398,-87.7624 -80.2957,-89.1774 -78.7271,-90.5651 -77.1345,-91.9253 -75.5184,-93.2575 -73.8794,-94.5613 -72.2178,-95.8363 -70.5342,-97.082 -68.8292,-98.2982 -67.1032,-99.4845 -65.3567,-100.64 -63.5903,-101.766 -61.8046,-102.86 -60,-103.923 -58.1772,-104.954 -56.3366,-105.954 -54.4789,-106.921 -52.6045,-107.855 -50.7142,-108.757 -48.8084,-109.625 -46.8877,-110.461 -44.9528,-111.262 -43.0042,-112.03 -41.0424,-112.763 -39.0682,-113.462 -37.0821,-114.127 -35.0846,-114.757 -33.0765,-115.351 -31.0583,-115.911 -29.0306,-116.435 -26.9941,-116.924 -24.9494,-117.378 -22.8971,-117.795 -20.8378,-118.177 -18.7721,-118.523 -16.7008,-118.832 -14.6243,-119.106 -12.5434,-119.343 -10.4587,-119.543 -8.37079,-119.708 -6.28033,-119.836 -4.18795,-119.927 -2.0943,-119.982 " />
</g>
</svg>
