<?xml version="1.0" encoding="UTF-8" standalone="no"?>
<svg xmlns="http://www.w3.org/2000/svg" xmlns:xlink="http://www.w3.org/1999/xlink"  version="1.2" baseProfile="tiny">
<title>Qt SVG Document</title>
<desc>Generated with Qt</desc>
<defs>
</defs>
<g fill="none" stroke="black" stroke-width="1" fill-rule="evenodd" stroke-linecap="square" stroke-linejoin="bevel" >

<path vector-effect="none" fill-rule="evenodd" d="M0,-150 L2.62659,-150.477 L5.26982,-150.908 L7.9289,-151.292 L10.603,-151.63 L13.2913,-151.92 L15.9929,-152.162 L18.7069,-152.356 L21.4327,-152.501 L24.1691,-152.598 L26.9155,-152.645 L29.6708,-152.643 L32.4342,-152.591 L35.2048,-152.489 L37.9817,-152.336 L40.764,-152.133 L43.5507,-151.879 L46.3409,-151.574 L49.1337,-151.218 L51.9281,-150.81 L54.7232,-150.351 L57.5181,-149.84 L60.3117,-149.277 L63.1031,-148.662 L65.8913,-147.994 L68.6755,-147.275 L71.4545,-146.503 L74.2274,-145.68 L76.9933,-144.803 L79.7512,-143.875 L82.5,-142.894 L85.2388,-141.861 L87.9666,-140.776 L90.6824,-139.639 L93.3852,-138.449 L96.0741,-137.208 L98.7479,-135.915 L101.406,-134.57 L104.047,-133.174 L106.67,-131.726 L109.274,-130.228 L111.858,-128.678 L114.421,-127.078 L116.963,-125.427 L119.481,-123.726 L121.976,-121.976 L124.446,-120.176 L126.89,-118.327 L129.307,-116.429 L131.697,-114.482 L134.058,-112.488 L136.389,-110.446 L138.69,-108.356 L140.959,-106.22 L143.196,-104.038 L145.399,-101.81 L147.569,-99.5363 L149.703,-97.2181 L151.801,-94.8556 L153.862,-92.4493 L155.885,-90 L157.869,-87.5081 L159.814,-84.9744 L161.718,-82.3993 L163.581,-79.7836 L165.401,-77.1278 L167.179,-74.4328 L168.913,-71.6992 L170.602,-68.9276 L172.246,-66.1189 L173.843,-63.2737 L175.394,-60.3929 L176.897,-57.4772 L178.351,-54.5273 L179.756,-51.5442 L181.111,-48.5286 L182.416,-45.4813 L183.669,-42.4033 L184.87,-39.2953 L186.018,-36.1583 L187.113,-32.9932 L188.155,-29.8008 L189.141,-26.5821 L190.073,-23.338 L190.948,-20.0695 L191.767,-16.7775 L192.53,-13.463 L193.235,-10.127 L193.882,-6.77051 L194.47,-3.3945 L195,-5.225e-06 L194.97,3.40321 L194.881,6.8054 L194.733,10.2055 L194.525,13.6025 L194.258,16.9954 L193.932,20.383 L193.547,23.7645 L193.102,27.1387 L192.599,30.5047 L192.038,33.8614 L191.417,37.2077 L190.739,40.5428 L190.002,43.8654 L189.208,47.1748 L188.356,50.4697 L187.446,53.7493 L186.479,57.0125 L185.456,60.2583 L184.376,63.4858 L183.24,66.6939 L182.048,69.8817 L180.801,73.0483 L179.498,76.1926 L178.141,79.3136 L176.73,82.4106 L175.265,85.4824 L173.746,88.5281 L172.175,91.547 L170.551,94.5379 L168.875,97.5 L167.148,100.432 L165.369,103.334 L163.541,106.205 L161.662,109.043 L159.735,111.847 L157.758,114.618 L155.734,117.354 L153.662,120.054 L151.543,122.717 L149.379,125.344 L147.168,127.932 L144.913,130.48 L142.614,132.99 L140.271,135.458 L137.886,137.886 L135.458,140.271 L132.99,142.614 L130.48,144.913 L127.932,147.168 L125.344,149.379 L122.717,151.543 L120.054,153.662 L117.354,155.734 L114.618,157.758 L111.847,159.735 L109.043,161.662 L106.205,163.541 L103.334,165.369 L100.432,167.148 L97.5,168.875 L94.5379,170.551 L91.547,172.175 L88.5282,173.746 L85.4824,175.265 L82.4106,176.73 L79.3137,178.141 L76.1926,179.498 L73.0483,180.801 L69.8818,182.048 L66.6939,183.24 L63.4858,184.376 L60.2583,185.456 L57.0125,186.479 L53.7493,187.446 L50.4697,188.356 L47.1748,189.208 L43.8655,190.002 L40.5428,190.739 L37.2078,191.417 L33.8614,192.038 L30.5047,192.599 L27.1388,193.102 L23.7645,193.547 L20.3831,193.932 L16.9954,194.258 L13.6025,194.525 L10.2055,194.733 L6.80541,194.881 L3.40323,194.97 L1.045e-05,195 L-3.39448,194.47 L-6.77049,193.882 L-10.127,193.235 L-13.463,192.53 L-16.7775,191.767 L-20.0695,190.948 L-23.338,190.073 L-26.5821,189.141 L-29.8008,188.155 L-32.9931,187.113 L-36.1583,186.018 L-39.2953,184.87 L-42.4033,183.669 L-45.4813,182.416 L-48.5286,181.111 L-51.5442,179.756 L-54.5273,178.351 L-57.4771,176.897 L-60.3929,175.394 L-63.2737,173.843 L-66.1189,172.246 L-68.9276,170.602 L-71.6992,168.913 L-74.4328,167.179 L-77.1278,165.401 L-79.7835,163.581 L-82.3993,161.718 L-84.9743,159.814 L-87.5081,157.869 L-90,155.885 L-92.4493,153.862 L-94.8555,151.801 L-97.2181,149.703 L-99.5363,147.569 L-101.81,145.4 L-104.038,143.196 L-106.22,140.959 L-108.356,138.69 L-110.446,136.389 L-112.488,134.058 L-114.482,131.697 L-116.429,129.307 L-118.327,126.89 L-120.176,124.446 L-121.976,121.976 L-123.726,119.481 L-125.427,116.963 L-127.078,114.421 L-128.678,111.858 L-130.228,109.274 L-131.726,106.67 L-133.174,104.047 L-134.57,101.406 L-135.915,98.7479 L-137.208,96.0741 L-138.449,93.3852 L-139.639,90.6824 L-140.776,87.9666 L-141.861,85.2388 L-142.894,82.5 L-143.875,79.7512 L-144.803,76.9933 L-145.68,74.2275 L-146.503,71.4545 L-147.275,68.6755 L-147.994,65.8913 L-148.662,63.1031 L-149.277,60.3117 L-149.84,57.5181 L-150.351,54.7232 L-150.81,51.9281 L-151.218,49.1337 L-151.574,46.3409 L-151.879,43.5507 L-152.133,40.764 L-152.336,37.9817 L-152.489,35.2049 L-152.591,32.4342 L-152.643,29.6708 L-152.645,26.9155 L-152.598,24.1691 L-152.501,21.4327 L-152.356,18.707 L-152.162,15.9929 L-151.92,13.2913 L-151.63,10.603 L-151.292,7.92891 L-150.908,5.26984 L-150.477,2.6266 L-150,1.20577e-05 L-149.977,-2.61785 L-149.909,-5.23491 L-149.794,-7.85038 L-149.635,-10.4635 L-149.429,-13.0733 L-149.178,-15.6793 L-148.882,-18.2804 L-148.54,-20.876 L-148.153,-23.4652 L-147.721,-26.0472 L-147.244,-28.6213 L-146.722,-31.1867 L-146.156,-33.7426 L-145.544,-36.2883 L-144.889,-38.8228 L-144.189,-41.3456 L-143.446,-43.8557 L-142.658,-46.3525 L-141.828,-48.8352 L-140.954,-51.303 L-140.037,-53.7552 L-139.078,-56.191 L-138.076,-58.6097 L-137.032,-61.0105 L-135.946,-63.3927 L-134.819,-65.7557 L-133.651,-68.0986 L-132.442,-70.4207 L-131.193,-72.7214 L-129.904,-75 L-128.575,-77.2557 L-127.207,-79.4879 L-125.801,-81.6958 L-124.356,-83.8789 L-122.873,-86.0365 L-121.353,-88.1678 L-119.795,-90.2722 L-118.202,-92.3492 L-116.572,-94.398 L-114.907,-96.4181 L-113.206,-98.4088 L-111.472,-100.37 L-109.703,-102.3 L-107.901,-104.199 L-106.066,-106.066 L-104.199,-107.901 L-102.3,-109.703 L-100.37,-111.472 L-98.4089,-113.206 L-96.4182,-114.907 L-94.3981,-116.572 L-92.3492,-118.202 L-90.2723,-119.795 L-88.1678,-121.353 L-86.0365,-122.873 L-83.879,-124.356 L-81.6959,-125.801 L-79.4879,-127.207 L-77.2557,-128.575 L-75,-129.904 L-72.7215,-131.193 L-70.4207,-132.442 L-68.0986,-133.651 L-65.7557,-134.819 L-63.3928,-135.946 L-61.0105,-137.032 L-58.6097,-138.076 L-56.191,-139.078 L-53.7552,-140.037 L-51.303,-140.954 L-48.8352,-141.828 L-46.3526,-142.658 L-43.8558,-143.446 L-41.3456,-144.189 L-38.8229,-144.889 L-36.2883,-145.544 L-33.7427,-146.156 L-31.1868,-146.722 L-28.6214,-147.244 L-26.0472,-147.721 L-23.4652,-148.153 L-20.876,-148.54 L-18.2804,-148.882 L-15.6793,-149.178 L-13.0734,-149.429 L-10.4635,-149.635 L-7.85041,-149.794 L-5.23494,-149.909 L-2.61788,-149.977 L0,-150"/>
<path vector-effect="none" fill-rule="evenodd" d="M5.62786,-120.533 L7.72121,-120.913 L9.82967,-121.257 L11.9526,-121.563 L14.0893,-121.833 L16.2392,-122.065 L18.4016,-122.259 L20.5758,-122.414 L22.7611,-122.531 L24.9569,-122.608 L27.1624,-122.646 L29.3769,-122.644 L31.5996,-122.603 L33.83,-122.52 L36.0672,-122.398 L38.3105,-122.234 L40.5591,-122.029 L42.8123,-121.783 L45.0693,-121.495 L47.3294,-121.165 L49.5918,-120.793 L51.8556,-120.379 L54.1201,-119.922 L56.3846,-119.424 L58.6481,-118.882 L60.91,-118.298 L63.1693,-117.67 L65.4254,-117 L67.6773,-116.287 L69.9243,-115.53 L72.1655,-114.73 L74.4001,-113.888 L76.6273,-113.002 L78.8462,-112.072 L81.056,-111.1 L83.2559,-110.084 L85.4451,-109.026 L87.6226,-107.924 L89.7877,-106.779 L91.9396,-105.592 L94.0773,-104.361 L96.2,-103.088 L98.307,-101.773 L100.397,-100.415 L102.47,-99.0156 L104.525,-97.574 L106.56,-96.0906 L108.576,-94.5657 L110.57,-92.9996 L112.543,-91.3926 L114.494,-89.7448 L116.421,-88.0567 L118.324,-86.3285 L120.202,-84.5605 L122.055,-82.7532 L123.881,-80.9068 L125.679,-79.0217 L127.45,-77.0984 L129.191,-75.1372 L130.903,-73.1385 L132.584,-71.1029 L134.234,-69.0307 L135.853,-66.9224 L137.438,-64.7786 L138.99,-62.5997 L140.507,-60.3863 L141.989,-58.1388 L143.436,-55.8579 L144.846,-53.544 L146.219,-51.1979 L147.555,-48.82 L148.851,-46.4109 L150.109,-43.9714 L151.326,-41.5021 L152.503,-39.0035 L153.638,-36.4764 L154.732,-33.9214 L155.783,-31.3393 L156.792,-28.7307 L157.756,-26.0964 L158.676,-23.4371 L159.551,-20.7535 L160.381,-18.0465 L161.165,-15.3167 L161.902,-12.565 L162.592,-9.79212 L163.235,-6.99894 L163.829,-4.18624 L164.375,-1.35486 L164.871,1.49435 L165,-4.42116e-06 L164.975,2.87964 L164.899,5.75841 L164.774,8.63543 L164.598,11.5098 L164.372,14.3807 L164.096,17.2472 L163.77,20.1084 L163.394,22.9636 L162.969,25.8117 L162.493,28.6519 L161.968,31.4835 L161.394,34.3054 L160.771,37.1169 L160.099,39.9171 L159.378,42.7051 L158.608,45.4802 L157.79,48.2413 L156.924,50.9878 L156.011,53.7187 L155.049,56.4333 L154.041,59.1307 L152.985,61.8101 L151.883,64.4706 L150.735,67.1115 L149.541,69.732 L148.301,72.3312 L147.016,74.9084 L145.686,77.4628 L144.312,79.9936 L142.894,82.5 L141.433,84.9813 L139.928,87.4367 L138.381,89.8654 L136.791,92.2668 L135.16,94.6401 L133.488,96.9846 L131.775,99.2995 L130.022,101.584 L128.229,103.838 L126.397,106.06 L124.527,108.25 L122.619,110.407 L120.673,112.53 L118.691,114.619 L116.673,116.673 L114.619,118.691 L112.53,120.673 L110.407,122.619 L108.25,124.527 L106.06,126.397 L103.838,128.229 L101.584,130.022 L99.2995,131.775 L96.9846,133.488 L94.6401,135.16 L92.2668,136.791 L89.8654,138.381 L87.4367,139.928 L84.9813,141.433 L82.5,142.894 L79.9936,144.312 L77.4628,145.686 L74.9084,147.016 L72.3312,148.301 L69.732,149.541 L67.1116,150.735 L64.4706,151.883 L61.8101,152.985 L59.1307,154.041 L56.4333,155.049 L53.7188,156.011 L50.9878,156.924 L48.2413,157.79 L45.4802,158.608 L42.7051,159.378 L39.9171,160.099 L37.1169,160.771 L34.3054,161.394 L31.4835,161.968 L28.652,162.493 L25.8117,162.969 L22.9636,163.394 L20.1085,163.77 L17.2472,164.096 L14.3807,164.372 L11.5098,164.598 L8.63544,164.774 L5.75843,164.899 L2.87966,164.975 L4.36057,165.319 L1.49437,164.871 L-1.35485,164.375 L-4.18623,163.829 L-6.99893,163.235 L-9.79211,162.592 L-12.565,161.902 L-15.3167,161.165 L-18.0465,160.381 L-20.7535,159.551 L-23.4371,158.676 L-26.0964,157.756 L-28.7307,156.792 L-31.3393,155.783 L-33.9214,154.732 L-36.4764,153.638 L-39.0035,152.503 L-41.5021,151.326 L-43.9714,150.109 L-46.4109,148.851 L-48.8199,147.555 L-51.1978,146.219 L-53.544,144.846 L-55.8578,143.436 L-58.1388,141.989 L-60.3863,140.507 L-62.5997,138.99 L-64.7786,137.438 L-66.9224,135.853 L-69.0307,134.234 L-71.1029,132.584 L-73.1385,130.903 L-75.1371,129.191 L-77.0984,127.45 L-79.0217,125.679 L-80.9068,123.881 L-82.7532,122.055 L-84.5605,120.202 L-86.3285,118.324 L-88.0567,116.421 L-89.7448,114.494 L-91.3926,112.543 L-92.9996,110.57 L-94.5657,108.576 L-96.0906,106.56 L-97.574,104.525 L-99.0156,102.47 L-100.415,100.397 L-101.773,98.307 L-103.088,96.2 L-104.361,94.0773 L-105.592,91.9396 L-106.779,89.7877 L-107.924,87.6226 L-109.026,85.4451 L-110.084,83.2559 L-111.1,81.056 L-112.072,78.8462 L-113.002,76.6273 L-113.888,74.4001 L-114.73,72.1655 L-115.53,69.9243 L-116.287,67.6773 L-117,65.4254 L-117.67,63.1694 L-118.297,60.91 L-118.882,58.6481 L-119.424,56.3846 L-119.922,54.1201 L-120.379,51.8556 L-120.793,49.5918 L-121.165,47.3294 L-121.495,45.0694 L-121.783,42.8123 L-122.029,40.5591 L-122.234,38.3105 L-122.398,36.0672 L-122.52,33.83 L-122.603,31.5997 L-122.644,29.3769 L-122.646,27.1624 L-122.608,24.9569 L-122.531,22.7611 L-122.414,20.5758 L-122.259,18.4016 L-122.065,16.2392 L-121.833,14.0893 L-121.563,11.9526 L-121.257,9.82968 L-120.913,7.72122 L-120,9.64616e-06 L-119.982,-2.09428 L-119.927,-4.18793 L-119.836,-6.2803 L-119.708,-8.37077 L-119.543,-10.4587 L-119.343,-12.5434 L-119.106,-14.6243 L-118.832,-16.7008 L-118.523,-18.7721 L-118.177,-20.8378 L-117.795,-22.8971 L-117.378,-24.9494 L-116.924,-26.9941 L-116.435,-29.0306 L-115.911,-31.0583 L-115.351,-33.0765 L-114.757,-35.0846 L-114.127,-37.082 L-113.462,-39.0682 L-112.763,-41.0424 L-112.03,-43.0041 L-111.262,-44.9528 L-110.461,-46.8877 L-109.625,-48.8084 L-108.757,-50.7142 L-107.855,-52.6045 L-106.921,-54.4789 L-105.954,-56.3366 L-104.954,-58.1771 L-103.923,-60 L-102.86,-61.8046 L-101.766,-63.5903 L-100.64,-65.3567 L-99.4845,-67.1031 L-98.2982,-68.8292 L-97.082,-70.5342 L-95.8363,-72.2178 L-94.5613,-73.8794 L-93.2575,-75.5184 L-91.9253,-77.1345 L-90.5652,-78.7271 L-89.1774,-80.2957 L-87.7625,-81.8398 L-86.3208,-83.359 L-84.8528,-84.8528 L-83.359,-86.3208 L-81.8398,-87.7624 L-80.2957,-89.1774 L-78.7271,-90.5651 L-77.1345,-91.9253 L-75.5184,-93.2575 L-73.8794,-94.5613 L-72.2178,-95.8363 L-70.5342,-97.082 L-68.8292,-98.2982 L-67.1032,-99.4845 L-65.3567,-100.64 L-63.5903,-101.766 L-61.8046,-102.86 L-60,-103.923 L-58.1772,-104.954 L-56.3366,-105.954 L-54.4789,-106.921 L-52.6045,-107.855 L-50.7142,-108.757 L-48.8084,-109.625 L-46.8877,-110.461 L-44.9528,-111.262 L-43.0042,-112.03 L-41.0424,-112.763 L-39.0682,-113.462 L-37.0821,-114.127 L-35.0846,-114.757 L-33.0765,-115.351 L-31.0583,-115.911 L-29.0306,-116.435 L-26.9941,-116.924 L-24.9494,-117.378 L-22.8971,-117.795 L-20.8378,-118.177 L-18.7721,-118.523 L-16.7008,-118.832 L-14.6243,-119.106 L-12.5434,-119.343 L-10.4587,-119.543 L-8.37079,-119.708 L-6.28033,-119.836 L-4.18795,-119.927 L-2.0943,-119.982 L5.62786,-120.533"/>
</g>
</svg>
